<?xml version="1.0" encoding="utf-8"?>
<!-- Generator: Adobe Illustrator 16.0.0, SVG Export Plug-In . SVG Version: 6.00 Build 0)  -->
<!DOCTYPE svg PUBLIC "-//W3C//DTD SVG 1.1//EN" "http://www.w3.org/Graphics/SVG/1.1/DTD/svg11.dtd">
<svg version="1.1" xmlns="http://www.w3.org/2000/svg" xmlns:xlink="http://www.w3.org/1999/xlink" x="0px" y="0px" width="1024px"
	 height="768px" viewBox="0 0 1024 768" enable-background="new 0 0 1024 768" xml:space="preserve">
<g id="Layer_1">
	
		<text id="XMLID_1_" transform="matrix(1 0 0 1 277.8452 433.0771)" fill="#F29A19" font-family="'OldEnglishTextMT'" font-size="290.3513">@</text>
</g>
<g id="Layer_2">
	<path d="M596.644,460.297c1.116,7.073-2.229,13.48-7.474,14.308l-2.372,0.375c-5.244,0.827-10.4-4.236-11.517-11.313
		l-35.378-224.158c-1.117-7.074,2.229-13.48,7.473-14.308l2.374-0.374c5.242-0.828,10.398,4.236,11.516,11.31L596.644,460.297z"/>
</g>
<g id="Layer_3">
	<path fill="#93278F" d="M612.716,350.642c0.608,3.857-4.921,7.936-12.351,9.108l-3.363,0.531
		c-7.433,1.173-13.949-1.004-14.559-4.861l-19.291-122.235c-0.609-3.858,4.92-7.936,12.35-9.107l3.367-0.532
		c7.429-1.173,13.945,1.004,14.555,4.862L612.716,350.642z"/>
	<path fill="#93278F" d="M638.771,334.65c0.49,3.111-4.307,6.454-10.716,7.465l-2.901,0.458c-6.412,1.012-12.006-0.691-12.498-3.802
		l-15.56-98.593c-0.491-3.111,4.306-6.454,10.716-7.465l2.904-0.458c6.408-1.012,12.002,0.69,12.494,3.802L638.771,334.65z"/>
	<path fill="#93278F" d="M665.739,321.21c0.411,2.614-3.618,5.421-9.003,6.271l-2.438,0.385c-5.388,0.85-10.087-0.58-10.5-3.194
		l-13.072-82.833c-0.413-2.614,3.617-5.422,9.002-6.271l2.44-0.385c5.384-0.85,10.083,0.58,10.497,3.194L665.739,321.21z"/>
	<path fill="#93278F" d="M687.707,308.77c0.332,2.117-2.93,4.39-7.29,5.078l-1.974,0.312c-4.363,0.689-8.168-0.47-8.502-2.586
		l-10.585-67.071c-0.335-2.116,2.929-4.39,7.289-5.078l1.976-0.312c4.359-0.688,8.164,0.47,8.5,2.586L687.707,308.77z"/>
	<path fill="#93278F" d="M704.787,294.81c0.247,1.573-2.176,3.261-5.415,3.772l-1.466,0.231c-3.239,0.511-6.066-0.349-6.315-1.921
		l-7.861-49.817c-0.249-1.572,2.176-3.261,5.414-3.772l1.468-0.231c3.237-0.511,6.063,0.348,6.313,1.921L704.787,294.81z"/>
	<path fill="#93278F" d="M720.705,285.746c0.175,1.11-1.896,2.358-4.629,2.79l-1.236,0.195c-2.732,0.431-5.09-0.119-5.266-1.229
		l-5.551-35.173c-0.176-1.109,1.897-2.359,4.629-2.791l1.238-0.195c2.73-0.432,5.087,0.118,5.263,1.229L720.705,285.746z"/>
</g>
<g id="Layer_4">
	<ellipse cx="594" cy="486" rx="36" ry="9"/>
	<text transform="matrix(1 0 0 1 404.9995 549)" fill="#686161" font-family="'ArialRoundedMTBold'" font-size="48.3826">Loading...</text>
</g>
</svg>
